<mxfile host="app.diagrams.net" modified="2021-07-11T12:25:59.853Z" agent="5.0 (Windows NT 10.0; Win64; x64) AppleWebKit/537.36 (KHTML, like Gecko) Chrome/91.0.4472.124 Safari/537.36 Edg/91.0.864.67" etag="1jMxrfnje9VbgdGt-Rjz" version="14.8.5" type="github">
  <diagram id="Ud3BV54i0hFkQ3ag8ZkD" name="Page-1">
    <mxGraphModel dx="497" dy="377" grid="1" gridSize="10" guides="1" tooltips="1" connect="1" arrows="1" fold="1" page="1" pageScale="1" pageWidth="827" pageHeight="1169" math="0" shadow="0">
      <root>
        <mxCell id="0" />
        <mxCell id="1" parent="0" />
        <mxCell id="vBrrbc_E7rSGlaNft34t-1" value="&lt;font face=&quot;Times New Roman&quot; style=&quot;font-size: 12px&quot;&gt;&lt;br&gt;谣言信息支持者&lt;br&gt;&lt;/font&gt;" style="ellipse;whiteSpace=wrap;html=1;" vertex="1" parent="1">
          <mxGeometry x="250" y="130" width="120" height="80" as="geometry" />
        </mxCell>
        <mxCell id="vBrrbc_E7rSGlaNft34t-2" value="&lt;span style=&quot;font-family: &amp;#34;times new roman&amp;#34;&quot;&gt;&lt;br&gt;辟谣信息支持者&lt;/span&gt;" style="ellipse;whiteSpace=wrap;html=1;" vertex="1" parent="1">
          <mxGeometry x="550" y="130" width="120" height="80" as="geometry" />
        </mxCell>
        <mxCell id="vBrrbc_E7rSGlaNft34t-3" value="" style="shape=flexArrow;endArrow=classic;startArrow=classic;html=1;endWidth=21;endSize=6.47;width=16;" edge="1" parent="1">
          <mxGeometry width="100" height="100" relative="1" as="geometry">
            <mxPoint x="375" y="169.66" as="sourcePoint" />
            <mxPoint x="545" y="170.16" as="targetPoint" />
            <Array as="points">
              <mxPoint x="445" y="169.66" />
            </Array>
          </mxGeometry>
        </mxCell>
        <mxCell id="vBrrbc_E7rSGlaNft34t-12" value="网络舆论生态系统" style="edgeLabel;html=1;align=center;verticalAlign=middle;resizable=0;points=[];fontSize=11;" vertex="1" connectable="0" parent="vBrrbc_E7rSGlaNft34t-3">
          <mxGeometry x="0.0449" y="-3" relative="1" as="geometry">
            <mxPoint y="-3" as="offset" />
          </mxGeometry>
        </mxCell>
        <mxCell id="vBrrbc_E7rSGlaNft34t-4" value="&lt;font style=&quot;font-size: 20px&quot;&gt;&lt;span style=&quot;font-family: &amp;#34;times new roman&amp;#34;&quot;&gt;&lt;i&gt;x&lt;/i&gt;&lt;/span&gt;&lt;sub style=&quot;font-family: &amp;#34;times new roman&amp;#34;&quot;&gt;1&lt;/sub&gt;&lt;/font&gt;" style="text;html=1;strokeColor=none;fillColor=none;align=center;verticalAlign=middle;whiteSpace=wrap;rounded=0;" vertex="1" parent="1">
          <mxGeometry x="280" y="140" width="40" height="20" as="geometry" />
        </mxCell>
        <mxCell id="vBrrbc_E7rSGlaNft34t-5" value="&lt;font style=&quot;font-size: 20px&quot;&gt;&lt;span style=&quot;font-family: &amp;#34;times new roman&amp;#34;&quot;&gt;&lt;span&gt;&lt;i&gt;x&lt;/i&gt;&lt;/span&gt;&lt;span&gt;&lt;sub&gt;2&lt;/sub&gt;&lt;/span&gt;&lt;/span&gt;&lt;/font&gt;" style="text;html=1;strokeColor=none;fillColor=none;align=center;verticalAlign=middle;whiteSpace=wrap;rounded=0;" vertex="1" parent="1">
          <mxGeometry x="600" y="140" width="40" height="20" as="geometry" />
        </mxCell>
        <mxCell id="vBrrbc_E7rSGlaNft34t-6" style="edgeStyle=orthogonalEdgeStyle;rounded=0;orthogonalLoop=1;jettySize=auto;html=1;exitX=0.5;exitY=1;exitDx=0;exitDy=0;" edge="1" parent="1" source="vBrrbc_E7rSGlaNft34t-5" target="vBrrbc_E7rSGlaNft34t-5">
          <mxGeometry relative="1" as="geometry" />
        </mxCell>
        <mxCell id="vBrrbc_E7rSGlaNft34t-8" value="&lt;font style=&quot;font-size: 11px&quot;&gt;数目上限为&lt;font face=&quot;Times New Roman&quot;&gt;N&lt;/font&gt;&lt;sub&gt;1&lt;/sub&gt;&lt;/font&gt;" style="text;html=1;strokeColor=none;fillColor=none;align=center;verticalAlign=middle;whiteSpace=wrap;rounded=0;" vertex="1" parent="1">
          <mxGeometry x="242.5" y="210" width="115" height="20" as="geometry" />
        </mxCell>
        <mxCell id="vBrrbc_E7rSGlaNft34t-10" value="数目上限为&lt;font face=&quot;Times New Roman&quot; style=&quot;font-size: 11px&quot;&gt;N&lt;/font&gt;&lt;sub&gt;2&lt;/sub&gt;" style="text;html=1;strokeColor=none;fillColor=none;align=center;verticalAlign=middle;whiteSpace=wrap;rounded=0;" vertex="1" parent="1">
          <mxGeometry x="562.5" y="210" width="115" height="20" as="geometry" />
        </mxCell>
        <mxCell id="vBrrbc_E7rSGlaNft34t-11" value="&lt;font face=&quot;Times New Roman&quot; style=&quot;font-size: 16px&quot;&gt;ρ&lt;sub&gt;12&lt;/sub&gt;&lt;/font&gt;" style="html=1;verticalAlign=bottom;endArrow=block;entryX=0;entryY=0;entryDx=0;entryDy=0;exitX=1;exitY=0;exitDx=0;exitDy=0;" edge="1" parent="1" source="vBrrbc_E7rSGlaNft34t-1" target="vBrrbc_E7rSGlaNft34t-2">
          <mxGeometry y="-30" width="80" relative="1" as="geometry">
            <mxPoint x="414" y="139.31" as="sourcePoint" />
            <mxPoint x="524" y="139.81" as="targetPoint" />
            <Array as="points">
              <mxPoint x="410" y="120" />
              <mxPoint x="510" y="120" />
            </Array>
            <mxPoint as="offset" />
          </mxGeometry>
        </mxCell>
        <mxCell id="vBrrbc_E7rSGlaNft34t-14" value="&lt;font face=&quot;Times New Roman&quot; style=&quot;font-size: 16px&quot;&gt;ρ&lt;sub&gt;21&lt;/sub&gt;&lt;/font&gt;" style="html=1;verticalAlign=bottom;endArrow=block;exitX=0;exitY=1;exitDx=0;exitDy=0;entryX=1;entryY=1;entryDx=0;entryDy=0;" edge="1" parent="1" source="vBrrbc_E7rSGlaNft34t-2" target="vBrrbc_E7rSGlaNft34t-1">
          <mxGeometry x="0.0234" width="80" relative="1" as="geometry">
            <mxPoint x="524" y="180.5" as="sourcePoint" />
            <mxPoint x="359" y="196" as="targetPoint" />
            <mxPoint as="offset" />
            <Array as="points">
              <mxPoint x="510" y="220" />
              <mxPoint x="410" y="220" />
            </Array>
          </mxGeometry>
        </mxCell>
        <mxCell id="vBrrbc_E7rSGlaNft34t-17" value="&lt;span style=&quot;font-size: 16px ; font-family: &amp;#34;times new roman&amp;#34;&quot;&gt;&lt;i&gt;x&lt;/i&gt;&lt;/span&gt;&lt;sub style=&quot;font-family: &amp;#34;times new roman&amp;#34;&quot;&gt;1&lt;/sub&gt;&lt;span style=&quot;font-family: &amp;#34;times new roman&amp;#34;&quot;&gt;对&lt;/span&gt;&lt;span style=&quot;font-size: 16px ; font-family: &amp;#34;times new roman&amp;#34;&quot;&gt;&lt;i&gt;x&lt;/i&gt;&lt;/span&gt;&lt;sub style=&quot;font-family: &amp;#34;times new roman&amp;#34;&quot;&gt;2&lt;/sub&gt;&lt;span style=&quot;font-family: &amp;#34;times new roman&amp;#34;&quot;&gt;的&lt;/span&gt;&lt;span style=&quot;font-size: 11px ; text-align: left&quot;&gt;抑制影响因子&lt;/span&gt;" style="text;html=1;align=center;verticalAlign=middle;resizable=0;points=[];autosize=1;strokeColor=none;fontSize=12;" vertex="1" parent="1">
          <mxGeometry x="390" y="100" width="140" height="20" as="geometry" />
        </mxCell>
        <mxCell id="vBrrbc_E7rSGlaNft34t-18" value="&lt;span style=&quot;color: rgb(0 , 0 , 0) ; font-style: normal ; font-weight: 400 ; letter-spacing: normal ; text-indent: 0px ; text-transform: none ; word-spacing: 0px ; background-color: rgb(248 , 249 , 250) ; font-size: 16px ; text-align: center ; font-family: &amp;#34;times new roman&amp;#34;&quot;&gt;&lt;i&gt;x&lt;/i&gt;&lt;/span&gt;&lt;sub style=&quot;color: rgb(0 , 0 , 0) ; font-style: normal ; font-weight: 400 ; letter-spacing: normal ; text-indent: 0px ; text-transform: none ; word-spacing: 0px ; background-color: rgb(248 , 249 , 250) ; text-align: center ; font-family: &amp;#34;times new roman&amp;#34;&quot;&gt;2&lt;/sub&gt;&lt;span style=&quot;color: rgb(0 , 0 , 0) ; font-size: 12px ; font-style: normal ; font-weight: 400 ; letter-spacing: normal ; text-indent: 0px ; text-transform: none ; word-spacing: 0px ; background-color: rgb(248 , 249 , 250) ; text-align: center ; font-family: &amp;#34;times new roman&amp;#34;&quot;&gt;对&lt;/span&gt;&lt;span style=&quot;color: rgb(0 , 0 , 0) ; font-style: normal ; font-weight: 400 ; letter-spacing: normal ; text-indent: 0px ; text-transform: none ; word-spacing: 0px ; background-color: rgb(248 , 249 , 250) ; font-size: 16px ; text-align: center ; font-family: &amp;#34;times new roman&amp;#34;&quot;&gt;&lt;i&gt;x&lt;/i&gt;&lt;/span&gt;&lt;sub style=&quot;color: rgb(0 , 0 , 0) ; font-style: normal ; font-weight: 400 ; letter-spacing: normal ; text-indent: 0px ; text-transform: none ; word-spacing: 0px ; background-color: rgb(248 , 249 , 250) ; text-align: center ; font-family: &amp;#34;times new roman&amp;#34;&quot;&gt;1&lt;/sub&gt;&lt;span style=&quot;color: rgb(0 , 0 , 0) ; font-size: 12px ; font-style: normal ; font-weight: 400 ; letter-spacing: normal ; text-indent: 0px ; text-transform: none ; word-spacing: 0px ; background-color: rgb(248 , 249 , 250) ; text-align: center ; font-family: &amp;#34;times new roman&amp;#34;&quot;&gt;的&lt;/span&gt;&lt;span style=&quot;color: rgb(0 , 0 , 0) ; font-family: &amp;#34;helvetica&amp;#34; ; font-size: 11px ; font-style: normal ; font-weight: 400 ; letter-spacing: normal ; text-align: left ; text-indent: 0px ; text-transform: none ; word-spacing: 0px ; background-color: rgb(248 , 249 , 250)&quot;&gt;抑制影响因子&lt;/span&gt;" style="text;whiteSpace=wrap;html=1;fontSize=12;" vertex="1" parent="1">
          <mxGeometry x="420" y="220" width="150" height="20" as="geometry" />
        </mxCell>
      </root>
    </mxGraphModel>
  </diagram>
</mxfile>
